<svg xmlns="http://www.w3.org/2000/svg" aria-hidden="true" style="position:absolute;width:0;height:0;overflow:hidden">
    <defs>



        <symbol id="rocket" viewBox="0 0 28 28">
            <path
                d="M4.23333 11.6334L7.76667 13.1334C8.16667 12.3334 8.59445 11.5445 9.05 10.7667C9.50556 9.98892 9.98889 9.24448 10.5 8.53337L7.86667 8.00003L4.23333 11.6334ZM9.36667 14.3334L13.8 18.7667C15.0667 18.1889 16.2556 17.5334 17.3667 16.8C18.4778 16.0667 19.3778 15.3556 20.0667 14.6667C21.8667 12.8667 23.1889 11.0223 24.0333 9.13337C24.8778 7.24448 25.3333 5.11114 25.4 2.73337C23.0222 2.80003 20.8889 3.25559 19 4.10003C17.1111 4.94448 15.2667 6.2667 13.4667 8.0667C12.7778 8.75559 12.0667 9.65559 11.3333 10.7667C10.6 11.8778 9.94444 13.0667 9.36667 14.3334ZM17 11.1334C16.5556 10.6889 16.3333 10.1389 16.3333 9.48337C16.3333 8.82781 16.5556 8.27781 17 7.83337C17.4444 7.38892 17.9944 7.1667 18.65 7.1667C19.3056 7.1667 19.8556 7.38892 20.3 7.83337C20.7444 8.27781 20.9667 8.82781 20.9667 9.48337C20.9667 10.1389 20.7444 10.6889 20.3 11.1334C19.8556 11.5778 19.3056 11.8 18.65 11.8C17.9944 11.8 17.4444 11.5778 17 11.1334ZM16.5 23.9L20.1333 20.2667L19.6 17.6334C18.8889 18.1445 18.1444 18.6278 17.3667 19.0834C16.5889 19.5389 15.8 19.9667 15 20.3667L16.5 23.9ZM27.3667 0.7667C27.5667 3.78892 27.1889 6.54448 26.2333 9.03337C25.2778 11.5223 23.7 13.8667 21.5 16.0667L21.4333 16.1334L21.3667 16.2L22.1 19.8667C22.1667 20.2 22.15 20.5223 22.05 20.8334C21.95 21.1445 21.7778 21.4223 21.5333 21.6667L15.8333 27.4L13 20.8L7.33333 15.1334L0.733333 12.3L6.46667 6.60003C6.71111 6.35559 6.98889 6.18337 7.3 6.08337C7.61111 5.98337 7.93333 5.9667 8.26667 6.03337L11.9333 6.7667C11.9556 6.74448 11.9778 6.72781 12 6.7167C12.0222 6.70559 12.0444 6.68892 12.0667 6.6667C14.2667 4.4667 16.6111 2.88337 19.1 1.9167C21.5889 0.950033 24.3444 0.5667 27.3667 0.7667ZM2.96667 19.1667C3.74444 18.3889 4.69445 17.9945 5.81667 17.9834C6.93889 17.9723 7.88889 18.3556 8.66667 19.1334C9.44444 19.9111 9.82778 20.8611 9.81667 21.9834C9.80556 23.1056 9.41111 24.0556 8.63333 24.8334C8.05556 25.4111 7.16111 25.8889 5.95 26.2667C4.73889 26.6445 2.92222 27 0.5 27.3334C0.833333 24.9111 1.18333 23.0889 1.55 21.8667C1.91667 20.6445 2.38889 19.7445 2.96667 19.1667ZM4.36667 20.6C4.05556 20.9334 3.77778 21.4556 3.53333 22.1667C3.28889 22.8778 3.07778 23.7889 2.9 24.9C4.01111 24.7223 4.92222 24.5111 5.63333 24.2667C6.34444 24.0223 6.86667 23.7445 7.2 23.4334C7.62222 23.0556 7.83889 22.5834 7.85 22.0167C7.86111 21.45 7.66667 20.9556 7.26667 20.5334C6.84444 20.1334 6.35 19.9389 5.78333 19.95C5.21667 19.9611 4.74444 20.1778 4.36667 20.6Z" />
        </symbol>



        <symbol id="touch" viewBox="0 0 32 32">
            <path
                d="M15.5003 1.33331C17.5225 1.33331 19.2503 2.03887 20.6836 3.44998C22.1169 4.86109 22.8336 6.57776 22.8336 8.59998C22.8336 9.75554 22.5836 10.8444 22.0836 11.8666C21.5836 12.8889 20.878 13.7555 19.9669 14.4666H18.8336V12.8C19.478 12.2889 19.9725 11.6666 20.3169 10.9333C20.6614 10.2 20.8336 9.4222 20.8336 8.59998C20.8336 7.13331 20.3114 5.88887 19.2669 4.86665C18.2225 3.84442 16.9669 3.33331 15.5003 3.33331C14.0336 3.33331 12.778 3.84442 11.7336 4.86665C10.6891 5.88887 10.1669 7.13331 10.1669 8.59998C10.1669 9.4222 10.3391 10.2 10.6836 10.9333C11.028 11.6666 11.5225 12.2889 12.1669 12.8V15.2C10.9225 14.5555 9.94471 13.6444 9.23359 12.4666C8.52248 11.2889 8.16693 9.99998 8.16693 8.59998C8.16693 6.57776 8.88359 4.86109 10.3169 3.44998C11.7503 2.03887 13.478 1.33331 15.5003 1.33331ZM14.2336 29.3333C13.8558 29.3333 13.5003 29.2611 13.1669 29.1166C12.8336 28.9722 12.5447 28.7778 12.3003 28.5333L5.43359 21.6666L7.30026 19.7333C7.61137 19.4222 7.96137 19.1833 8.35026 19.0166C8.73915 18.85 9.14471 18.8222 9.56693 18.9333L12.1669 19.5333V8.66665C12.1669 7.73331 12.4891 6.94442 13.1336 6.29998C13.778 5.65554 14.5669 5.33331 15.5003 5.33331C16.4336 5.33331 17.2225 5.65554 17.8669 6.29998C18.5114 6.94442 18.8336 7.73331 18.8336 8.66665V14.4H19.7003C19.8114 14.4 19.9114 14.4222 20.0003 14.4666C20.0891 14.5111 20.1891 14.5555 20.3003 14.6L25.2336 17C25.7669 17.2444 26.1614 17.6389 26.4169 18.1833C26.6725 18.7278 26.7447 19.2889 26.6336 19.8666L25.4336 27.1333C25.3225 27.7778 25.0114 28.3055 24.5003 28.7166C23.9891 29.1278 23.4114 29.3333 22.7669 29.3333H14.2336ZM13.9669 27.3333H23.3336L24.7669 19.0333L18.6669 16H16.8336V8.66665C16.8336 8.26665 16.7114 7.94442 16.4669 7.69998C16.2225 7.45554 15.9003 7.33331 15.5003 7.33331C15.1003 7.33331 14.778 7.45554 14.5336 7.69998C14.2891 7.94442 14.1669 8.26665 14.1669 8.66665V21.9666L9.03359 20.8666L8.26693 21.6333L13.9669 27.3333ZM23.3336 27.3333H13.9669H23.3336Z" />
        </symbol>



        <symbol id="star" viewBox="0 0 16 16">
            <path
                d="M6.77845 3.2278C7.2843 2.23658 8.69845 2.23659 9.2043 3.22781L9.84467 4.48261C10.0428 4.87079 10.4141 5.14078 10.844 5.20915L12.2316 5.42984C13.3307 5.60464 13.7681 6.95431 12.9811 7.74239L11.9909 8.7338C11.6826 9.04252 11.5404 9.48039 11.6084 9.91171L11.8271 11.298C12.0006 12.3982 10.8562 13.2318 9.86474 12.7275L8.60822 12.0883C8.22056 11.8911 7.76219 11.8911 7.37453 12.0883L6.11801 12.7275C5.12659 13.2318 3.98212 12.3982 4.15564 11.298L4.3743 9.91171C4.44233 9.48039 4.30015 9.04252 3.99183 8.7338L3.00169 7.74239C2.21462 6.95431 2.65201 5.60464 3.75113 5.42984L5.13876 5.20915C5.56862 5.14078 5.93998 4.87079 6.13808 4.48261L6.77845 3.2278Z"
                fill="#FFE550" />
        </symbol>


    </defs>
</svg>